<svg width="512" viewBox="0 0 15 15" xmlns="http://www.w3.org/2000/svg" xmlns:xlink="http://www.w3.org/1999/xlink"><g fill="none"><path d="M3.5 6a.5.5 0 0 0-.5.5v2a.5.5 0 0 0 1 0v-2a.5.5 0 0 0-.5-.5z" fill="currentColor"/><path d="M11 7h.5a.5.5 0 0 0 0-1H11v1z" fill="currentColor"/><path fill-rule="evenodd" clip-rule="evenodd" d="M0 1.5A1.5 1.5 0 0 1 1.5 0h12A1.5 1.5 0 0 1 15 1.5v12a1.5 1.5 0 0 1-1.5 1.5h-12A1.5 1.5 0 0 1 0 13.5v-12zm2 5a1.5 1.5 0 1 1 3 0v2a1.5 1.5 0 1 1-3 0v-2zM7 6H6V5h3v1H8v4H7V6zm3-1h1.5a1.5 1.5 0 0 1 0 3H11v2h-1V5z" fill="currentColor"/></g></svg>